<mxfile host="Electron" modified="2023-12-19T23:26:19.552Z" agent="Mozilla/5.0 (Windows NT 10.0; Win64; x64) AppleWebKit/537.36 (KHTML, like Gecko) draw.io/22.0.2 Chrome/114.0.5735.289 Electron/25.8.4 Safari/537.36" etag="ZyksY7sTpwoSQ3AH2I-h" version="22.0.2" type="device">
  <diagram name="第 1 页" id="3Jb-eVokutX10mfzesF-">
    <mxGraphModel dx="1418" dy="868" grid="1" gridSize="10" guides="1" tooltips="1" connect="1" arrows="1" fold="1" page="1" pageScale="1" pageWidth="827" pageHeight="1169" math="0" shadow="0">
      <root>
        <mxCell id="0" />
        <mxCell id="1" parent="0" />
        <mxCell id="gZiH5MzmUHTuEzDFCi7V-2" value="&lt;b style=&quot;border-color: var(--border-color);&quot;&gt;struct LCD_DEVICE&lt;/b&gt;" style="swimlane;fontStyle=1;align=center;verticalAlign=top;childLayout=stackLayout;horizontal=1;startSize=26;horizontalStack=0;resizeParent=1;resizeParentMax=0;resizeLast=0;collapsible=1;marginBottom=0;whiteSpace=wrap;html=1;fillColor=#fff2cc;strokeColor=#d6b656;" parent="1" vertex="1">
          <mxGeometry x="130" y="140" width="220" height="424" as="geometry" />
        </mxCell>
        <mxCell id="gZiH5MzmUHTuEzDFCi7V-3" value="&lt;div&gt;uint8_t id;&lt;/div&gt;&lt;div&gt;&lt;br&gt;&lt;/div&gt;" style="text;strokeColor=default;fillColor=none;align=left;verticalAlign=top;spacingLeft=4;spacingRight=4;overflow=hidden;rotatable=0;points=[[0,0.5],[1,0.5]];portConstraint=eastwest;whiteSpace=wrap;html=1;dashed=1;dashPattern=1 4;" parent="gZiH5MzmUHTuEzDFCi7V-2" vertex="1">
          <mxGeometry y="26" width="220" height="26" as="geometry" />
        </mxCell>
        <mxCell id="gZiH5MzmUHTuEzDFCi7V-8" value="&lt;div&gt;dev_t dev_number;&lt;/div&gt;&lt;div&gt;&lt;br&gt;&lt;/div&gt;" style="text;strokeColor=default;fillColor=none;align=left;verticalAlign=top;spacingLeft=4;spacingRight=4;overflow=hidden;rotatable=0;points=[[0,0.5],[1,0.5]];portConstraint=eastwest;whiteSpace=wrap;html=1;dashed=1;dashPattern=1 4;" parent="gZiH5MzmUHTuEzDFCi7V-2" vertex="1">
          <mxGeometry y="52" width="220" height="26" as="geometry" />
        </mxCell>
        <mxCell id="gZiH5MzmUHTuEzDFCi7V-7" value="&lt;div&gt;struct cdev *lcd_cdev;&lt;/div&gt;&lt;div&gt;&lt;br&gt;&lt;/div&gt;" style="text;strokeColor=default;fillColor=none;align=left;verticalAlign=top;spacingLeft=4;spacingRight=4;overflow=hidden;rotatable=0;points=[[0,0.5],[1,0.5]];portConstraint=eastwest;whiteSpace=wrap;html=1;dashed=1;dashPattern=1 4;" parent="gZiH5MzmUHTuEzDFCi7V-2" vertex="1">
          <mxGeometry y="78" width="220" height="26" as="geometry" />
        </mxCell>
        <mxCell id="gZiH5MzmUHTuEzDFCi7V-6" value="&lt;div&gt;struct spi_device *lcd_spi_dev;&lt;/div&gt;&lt;div&gt;&lt;br&gt;&lt;/div&gt;" style="text;strokeColor=default;fillColor=none;align=left;verticalAlign=top;spacingLeft=4;spacingRight=4;overflow=hidden;rotatable=0;points=[[0,0.5],[1,0.5]];portConstraint=eastwest;whiteSpace=wrap;html=1;dashed=1;dashPattern=1 4;" parent="gZiH5MzmUHTuEzDFCi7V-2" vertex="1">
          <mxGeometry y="104" width="220" height="26" as="geometry" />
        </mxCell>
        <mxCell id="gZiH5MzmUHTuEzDFCi7V-14" value="&lt;div&gt;struct class *lcd_class;&lt;/div&gt;&lt;div&gt;&lt;br&gt;&lt;/div&gt;" style="text;strokeColor=default;fillColor=none;align=left;verticalAlign=top;spacingLeft=4;spacingRight=4;overflow=hidden;rotatable=0;points=[[0,0.5],[1,0.5]];portConstraint=eastwest;whiteSpace=wrap;html=1;dashed=1;dashPattern=1 4;" parent="gZiH5MzmUHTuEzDFCi7V-2" vertex="1">
          <mxGeometry y="130" width="220" height="26" as="geometry" />
        </mxCell>
        <mxCell id="gZiH5MzmUHTuEzDFCi7V-13" value="&lt;div&gt;struct device *lcd_dev;&lt;/div&gt;&lt;div&gt;&lt;br&gt;&lt;/div&gt;" style="text;strokeColor=default;fillColor=none;align=left;verticalAlign=top;spacingLeft=4;spacingRight=4;overflow=hidden;rotatable=0;points=[[0,0.5],[1,0.5]];portConstraint=eastwest;whiteSpace=wrap;html=1;dashed=1;dashPattern=1 4;" parent="gZiH5MzmUHTuEzDFCi7V-2" vertex="1">
          <mxGeometry y="156" width="220" height="26" as="geometry" />
        </mxCell>
        <mxCell id="gZiH5MzmUHTuEzDFCi7V-12" value="&lt;div&gt;struct device_node *lcd_dev_node;&lt;/div&gt;&lt;div&gt;&lt;br&gt;&lt;/div&gt;" style="text;strokeColor=default;fillColor=none;align=left;verticalAlign=top;spacingLeft=4;spacingRight=4;overflow=hidden;rotatable=0;points=[[0,0.5],[1,0.5]];portConstraint=eastwest;whiteSpace=wrap;html=1;dashed=1;dashPattern=1 4;" parent="gZiH5MzmUHTuEzDFCi7V-2" vertex="1">
          <mxGeometry y="182" width="220" height="26" as="geometry" />
        </mxCell>
        <mxCell id="gZiH5MzmUHTuEzDFCi7V-11" value="&lt;div&gt;int lcd_pin_dc;&lt;/div&gt;&lt;div&gt;&lt;br&gt;&lt;/div&gt;" style="text;strokeColor=#666666;fillColor=#f5f5f5;align=left;verticalAlign=top;spacingLeft=4;spacingRight=4;overflow=hidden;rotatable=0;points=[[0,0.5],[1,0.5]];portConstraint=eastwest;whiteSpace=wrap;html=1;dashed=1;dashPattern=1 4;fontColor=#333333;" parent="gZiH5MzmUHTuEzDFCi7V-2" vertex="1">
          <mxGeometry y="208" width="220" height="26" as="geometry" />
        </mxCell>
        <mxCell id="gZiH5MzmUHTuEzDFCi7V-10" value="&lt;div&gt;int lcd_pin_reset;&lt;/div&gt;&lt;div&gt;&lt;br&gt;&lt;/div&gt;" style="text;strokeColor=#666666;fillColor=#f5f5f5;align=left;verticalAlign=top;spacingLeft=4;spacingRight=4;overflow=hidden;rotatable=0;points=[[0,0.5],[1,0.5]];portConstraint=eastwest;whiteSpace=wrap;html=1;dashed=1;dashPattern=1 4;fontColor=#333333;" parent="gZiH5MzmUHTuEzDFCi7V-2" vertex="1">
          <mxGeometry y="234" width="220" height="26" as="geometry" />
        </mxCell>
        <mxCell id="gZiH5MzmUHTuEzDFCi7V-9" value="&lt;div&gt;int lcd_pin_backlight;&lt;/div&gt;&lt;div&gt;&lt;br&gt;&lt;/div&gt;" style="text;strokeColor=#666666;fillColor=#f5f5f5;align=left;verticalAlign=top;spacingLeft=4;spacingRight=4;overflow=hidden;rotatable=0;points=[[0,0.5],[1,0.5]];portConstraint=eastwest;whiteSpace=wrap;html=1;dashed=1;dashPattern=1 4;fontColor=#333333;" parent="gZiH5MzmUHTuEzDFCi7V-2" vertex="1">
          <mxGeometry y="260" width="220" height="26" as="geometry" />
        </mxCell>
        <mxCell id="gZiH5MzmUHTuEzDFCi7V-18" value="&lt;div&gt;int lcd_pin_cs;&lt;/div&gt;&lt;div&gt;&lt;br&gt;&lt;/div&gt;" style="text;strokeColor=#666666;fillColor=#f5f5f5;align=left;verticalAlign=top;spacingLeft=4;spacingRight=4;overflow=hidden;rotatable=0;points=[[0,0.5],[1,0.5]];portConstraint=eastwest;whiteSpace=wrap;html=1;dashed=1;dashPattern=1 4;fontColor=#333333;" parent="gZiH5MzmUHTuEzDFCi7V-2" vertex="1">
          <mxGeometry y="286" width="220" height="26" as="geometry" />
        </mxCell>
        <mxCell id="gZiH5MzmUHTuEzDFCi7V-17" value="&lt;div&gt;int lcd_width;&lt;/div&gt;&lt;div&gt;&lt;br&gt;&lt;/div&gt;" style="text;strokeColor=#666666;fillColor=#f5f5f5;align=left;verticalAlign=top;spacingLeft=4;spacingRight=4;overflow=hidden;rotatable=0;points=[[0,0.5],[1,0.5]];portConstraint=eastwest;whiteSpace=wrap;html=1;dashed=1;dashPattern=1 4;fontColor=#333333;" parent="gZiH5MzmUHTuEzDFCi7V-2" vertex="1">
          <mxGeometry y="312" width="220" height="26" as="geometry" />
        </mxCell>
        <mxCell id="gZiH5MzmUHTuEzDFCi7V-16" value="&lt;div&gt;int lcd_height;&lt;/div&gt;&lt;div&gt;&lt;br&gt;&lt;/div&gt;" style="text;strokeColor=#666666;fillColor=#f5f5f5;align=left;verticalAlign=top;spacingLeft=4;spacingRight=4;overflow=hidden;rotatable=0;points=[[0,0.5],[1,0.5]];portConstraint=eastwest;whiteSpace=wrap;html=1;dashed=1;dashPattern=1 4;fontColor=#333333;" parent="gZiH5MzmUHTuEzDFCi7V-2" vertex="1">
          <mxGeometry y="338" width="220" height="26" as="geometry" />
        </mxCell>
        <mxCell id="gZiH5MzmUHTuEzDFCi7V-15" style="text;strokeColor=default;fillColor=none;align=left;verticalAlign=top;spacingLeft=4;spacingRight=4;overflow=hidden;rotatable=0;points=[[0,0.5],[1,0.5]];portConstraint=eastwest;whiteSpace=wrap;html=1;dashed=1;dashPattern=1 4;" parent="gZiH5MzmUHTuEzDFCi7V-2" vertex="1">
          <mxGeometry y="364" width="220" height="26" as="geometry" />
        </mxCell>
        <mxCell id="gZiH5MzmUHTuEzDFCi7V-4" value="" style="line;strokeWidth=1;fillColor=none;align=left;verticalAlign=middle;spacingTop=-1;spacingLeft=3;spacingRight=3;rotatable=0;labelPosition=right;points=[];portConstraint=eastwest;strokeColor=inherit;" parent="gZiH5MzmUHTuEzDFCi7V-2" vertex="1">
          <mxGeometry y="390" width="220" height="8" as="geometry" />
        </mxCell>
        <mxCell id="gZiH5MzmUHTuEzDFCi7V-5" value="+ method(type): type" style="text;strokeColor=default;fillColor=none;align=left;verticalAlign=top;spacingLeft=4;spacingRight=4;overflow=hidden;rotatable=0;points=[[0,0.5],[1,0.5]];portConstraint=eastwest;whiteSpace=wrap;html=1;dashed=1;dashPattern=1 4;" parent="gZiH5MzmUHTuEzDFCi7V-2" vertex="1">
          <mxGeometry y="398" width="220" height="26" as="geometry" />
        </mxCell>
        <mxCell id="gZiH5MzmUHTuEzDFCi7V-19" value="&lt;b style=&quot;border-color: var(--border-color);&quot;&gt;dts&lt;br&gt;&lt;/b&gt;" style="swimlane;fontStyle=1;align=center;verticalAlign=top;childLayout=stackLayout;horizontal=1;startSize=26;horizontalStack=0;resizeParent=1;resizeParentMax=0;resizeLast=0;collapsible=1;marginBottom=0;whiteSpace=wrap;html=1;fillColor=#fff2cc;strokeColor=#d6b656;" parent="1" vertex="1">
          <mxGeometry x="340" y="660" width="650" height="320" as="geometry" />
        </mxCell>
        <mxCell id="gZiH5MzmUHTuEzDFCi7V-20" value="&lt;div&gt;&lt;div&gt;dc-pin = &amp;lt;&amp;amp;gpio4 24 0&amp;gt;;&lt;/div&gt;&lt;/div&gt;&lt;div&gt;&lt;br&gt;&lt;/div&gt;" style="text;strokeColor=default;fillColor=none;align=left;verticalAlign=top;spacingLeft=4;spacingRight=4;overflow=hidden;rotatable=0;points=[[0,0.5],[1,0.5]];portConstraint=eastwest;whiteSpace=wrap;html=1;dashed=1;dashPattern=1 4;" parent="gZiH5MzmUHTuEzDFCi7V-19" vertex="1">
          <mxGeometry y="26" width="650" height="26" as="geometry" />
        </mxCell>
        <mxCell id="gZiH5MzmUHTuEzDFCi7V-21" value="&lt;div&gt;&lt;div&gt;reset-pin = &amp;lt;&amp;amp;gpio4 21 0&amp;gt;;&lt;/div&gt;&lt;/div&gt;&lt;div&gt;&lt;br&gt;&lt;/div&gt;" style="text;strokeColor=default;fillColor=none;align=left;verticalAlign=top;spacingLeft=4;spacingRight=4;overflow=hidden;rotatable=0;points=[[0,0.5],[1,0.5]];portConstraint=eastwest;whiteSpace=wrap;html=1;dashed=1;dashPattern=1 4;" parent="gZiH5MzmUHTuEzDFCi7V-19" vertex="1">
          <mxGeometry y="52" width="650" height="26" as="geometry" />
        </mxCell>
        <mxCell id="gZiH5MzmUHTuEzDFCi7V-22" value="&lt;div&gt;&lt;div&gt;backlight-pin = &amp;lt;&amp;amp;gpio3 17 0&amp;gt;;&lt;/div&gt;&lt;/div&gt;&lt;div&gt;&lt;br&gt;&lt;/div&gt;" style="text;strokeColor=default;fillColor=none;align=left;verticalAlign=top;spacingLeft=4;spacingRight=4;overflow=hidden;rotatable=0;points=[[0,0.5],[1,0.5]];portConstraint=eastwest;whiteSpace=wrap;html=1;dashed=1;dashPattern=1 4;" parent="gZiH5MzmUHTuEzDFCi7V-19" vertex="1">
          <mxGeometry y="78" width="650" height="26" as="geometry" />
        </mxCell>
        <mxCell id="gZiH5MzmUHTuEzDFCi7V-23" value="&lt;div&gt;&lt;div&gt;cs-gpios = &amp;lt;&amp;amp;gpio4 26 0&amp;gt;;&lt;/div&gt;&lt;/div&gt;&lt;div&gt;&lt;br&gt;&lt;/div&gt;" style="text;strokeColor=default;fillColor=none;align=left;verticalAlign=top;spacingLeft=4;spacingRight=4;overflow=hidden;rotatable=0;points=[[0,0.5],[1,0.5]];portConstraint=eastwest;whiteSpace=wrap;html=1;dashed=1;dashPattern=1 4;" parent="gZiH5MzmUHTuEzDFCi7V-19" vertex="1">
          <mxGeometry y="104" width="650" height="26" as="geometry" />
        </mxCell>
        <mxCell id="gZiH5MzmUHTuEzDFCi7V-24" value="&lt;div&gt;&lt;div&gt;lcd-height = &amp;lt;128&amp;gt;;&lt;/div&gt;&lt;/div&gt;&lt;div&gt;&lt;br&gt;&lt;/div&gt;" style="text;strokeColor=default;fillColor=none;align=left;verticalAlign=top;spacingLeft=4;spacingRight=4;overflow=hidden;rotatable=0;points=[[0,0.5],[1,0.5]];portConstraint=eastwest;whiteSpace=wrap;html=1;dashed=1;dashPattern=1 4;" parent="gZiH5MzmUHTuEzDFCi7V-19" vertex="1">
          <mxGeometry y="130" width="650" height="26" as="geometry" />
        </mxCell>
        <mxCell id="gZiH5MzmUHTuEzDFCi7V-25" value="&lt;div&gt;&lt;div&gt;lcd-width = &amp;lt;160&amp;gt;;&lt;/div&gt;&lt;/div&gt;&lt;div&gt;&lt;br&gt;&lt;/div&gt;" style="text;strokeColor=default;fillColor=none;align=left;verticalAlign=top;spacingLeft=4;spacingRight=4;overflow=hidden;rotatable=0;points=[[0,0.5],[1,0.5]];portConstraint=eastwest;whiteSpace=wrap;html=1;dashed=1;dashPattern=1 4;" parent="gZiH5MzmUHTuEzDFCi7V-19" vertex="1">
          <mxGeometry y="156" width="650" height="26" as="geometry" />
        </mxCell>
        <mxCell id="gZiH5MzmUHTuEzDFCi7V-33" style="text;strokeColor=default;fillColor=none;align=left;verticalAlign=top;spacingLeft=4;spacingRight=4;overflow=hidden;rotatable=0;points=[[0,0.5],[1,0.5]];portConstraint=eastwest;whiteSpace=wrap;html=1;dashed=1;dashPattern=1 4;" parent="gZiH5MzmUHTuEzDFCi7V-19" vertex="1">
          <mxGeometry y="182" width="650" height="26" as="geometry" />
        </mxCell>
        <mxCell id="gZiH5MzmUHTuEzDFCi7V-34" value="" style="line;strokeWidth=1;fillColor=none;align=left;verticalAlign=middle;spacingTop=-1;spacingLeft=3;spacingRight=3;rotatable=0;labelPosition=right;points=[];portConstraint=eastwest;strokeColor=inherit;" parent="gZiH5MzmUHTuEzDFCi7V-19" vertex="1">
          <mxGeometry y="208" width="650" height="8" as="geometry" />
        </mxCell>
        <mxCell id="gZiH5MzmUHTuEzDFCi7V-35" value="相关API接口:" style="text;strokeColor=default;fillColor=none;align=left;verticalAlign=top;spacingLeft=4;spacingRight=4;overflow=hidden;rotatable=0;points=[[0,0.5],[1,0.5]];portConstraint=eastwest;whiteSpace=wrap;html=1;dashed=1;dashPattern=1 4;" parent="gZiH5MzmUHTuEzDFCi7V-19" vertex="1">
          <mxGeometry y="216" width="650" height="26" as="geometry" />
        </mxCell>
        <mxCell id="MZlD9gdpWGvjlDJCUq2M-5" value="&lt;div&gt;struct device_node *of_find_node_by_name(struct device_node *from,&lt;span style=&quot;background-color: initial;&quot;&gt;const char *name)&lt;/span&gt;&lt;/div&gt;" style="text;strokeColor=default;fillColor=none;align=left;verticalAlign=top;spacingLeft=4;spacingRight=4;overflow=hidden;rotatable=0;points=[[0,0.5],[1,0.5]];portConstraint=eastwest;whiteSpace=wrap;html=1;dashed=1;dashPattern=1 4;" vertex="1" parent="gZiH5MzmUHTuEzDFCi7V-19">
          <mxGeometry y="242" width="650" height="26" as="geometry" />
        </mxCell>
        <mxCell id="MZlD9gdpWGvjlDJCUq2M-4" value="&lt;div&gt;static inline int of_get_named_gpio(struct device_node *np,&lt;span style=&quot;background-color: initial;&quot;&gt;&amp;nbsp;const char *propname, int index)&lt;/span&gt;&lt;/div&gt;" style="text;strokeColor=default;fillColor=none;align=left;verticalAlign=top;spacingLeft=4;spacingRight=4;overflow=hidden;rotatable=0;points=[[0,0.5],[1,0.5]];portConstraint=eastwest;whiteSpace=wrap;html=1;dashed=1;dashPattern=1 4;" vertex="1" parent="gZiH5MzmUHTuEzDFCi7V-19">
          <mxGeometry y="268" width="650" height="26" as="geometry" />
        </mxCell>
        <mxCell id="MZlD9gdpWGvjlDJCUq2M-3" value="&lt;div&gt;int of_property_read_u32_index(const struct device_node *np,&amp;nbsp;&lt;span style=&quot;background-color: initial;&quot;&gt;const char *propname,&lt;/span&gt;&lt;span style=&quot;background-color: initial;&quot;&gt;&lt;span style=&quot;white-space: pre;&quot;&gt;&amp;nbsp;&lt;/span&gt;u32 index,&lt;/span&gt;&lt;span style=&quot;background-color: initial;&quot;&gt;&lt;span style=&quot;white-space: pre;&quot;&gt;&amp;nbsp;&lt;/span&gt;&lt;/span&gt;&lt;span style=&quot;background-color: initial;&quot;&gt;u32 *out_value);&lt;/span&gt;&lt;/div&gt;" style="text;strokeColor=default;fillColor=none;align=left;verticalAlign=top;spacingLeft=4;spacingRight=4;overflow=hidden;rotatable=0;points=[[0,0.5],[1,0.5]];portConstraint=eastwest;whiteSpace=wrap;html=1;dashed=1;dashPattern=1 4;" vertex="1" parent="gZiH5MzmUHTuEzDFCi7V-19">
          <mxGeometry y="294" width="650" height="26" as="geometry" />
        </mxCell>
        <mxCell id="MZlD9gdpWGvjlDJCUq2M-7" style="edgeStyle=orthogonalEdgeStyle;rounded=0;orthogonalLoop=1;jettySize=auto;html=1;exitX=1;exitY=0.5;exitDx=0;exitDy=0;entryX=0.5;entryY=0;entryDx=0;entryDy=0;" edge="1" parent="1" source="gZiH5MzmUHTuEzDFCi7V-12" target="gZiH5MzmUHTuEzDFCi7V-19">
          <mxGeometry relative="1" as="geometry" />
        </mxCell>
        <mxCell id="MZlD9gdpWGvjlDJCUq2M-8" value="&lt;b style=&quot;border-color: var(--border-color);&quot;&gt;struct spi_device&lt;/b&gt;" style="swimlane;fontStyle=1;align=center;verticalAlign=top;childLayout=stackLayout;horizontal=1;startSize=26;horizontalStack=0;resizeParent=1;resizeParentMax=0;resizeLast=0;collapsible=1;marginBottom=0;whiteSpace=wrap;html=1;fillColor=#fff2cc;strokeColor=#d6b656;" vertex="1" parent="1">
          <mxGeometry x="890" y="280" width="220" height="294" as="geometry" />
        </mxCell>
        <mxCell id="MZlD9gdpWGvjlDJCUq2M-9" value="&lt;div&gt;&lt;div&gt;&lt;div&gt;struct device&lt;span style=&quot;white-space: pre;&quot;&gt;&amp;nbsp;&amp;nbsp;&amp;nbsp;&amp;nbsp;&lt;/span&gt;&lt;span style=&quot;white-space: pre;&quot;&gt;&amp;nbsp;&amp;nbsp;&amp;nbsp;&amp;nbsp;&lt;/span&gt;dev;&lt;/div&gt;&lt;/div&gt;&lt;/div&gt;&lt;div&gt;&lt;br&gt;&lt;/div&gt;" style="text;strokeColor=default;fillColor=none;align=left;verticalAlign=top;spacingLeft=4;spacingRight=4;overflow=hidden;rotatable=0;points=[[0,0.5],[1,0.5]];portConstraint=eastwest;whiteSpace=wrap;html=1;dashed=1;dashPattern=1 4;" vertex="1" parent="MZlD9gdpWGvjlDJCUq2M-8">
          <mxGeometry y="26" width="220" height="26" as="geometry" />
        </mxCell>
        <mxCell id="MZlD9gdpWGvjlDJCUq2M-10" value="&lt;div&gt;&lt;div&gt;struct spi_controller&lt;span style=&quot;white-space: pre;&quot;&gt;&amp;nbsp;&amp;nbsp;&amp;nbsp;&amp;nbsp;&lt;/span&gt;*controller;&lt;/div&gt;&lt;/div&gt;" style="text;strokeColor=default;fillColor=none;align=left;verticalAlign=top;spacingLeft=4;spacingRight=4;overflow=hidden;rotatable=0;points=[[0,0.5],[1,0.5]];portConstraint=eastwest;whiteSpace=wrap;html=1;dashed=1;dashPattern=1 4;" vertex="1" parent="MZlD9gdpWGvjlDJCUq2M-8">
          <mxGeometry y="52" width="220" height="26" as="geometry" />
        </mxCell>
        <mxCell id="MZlD9gdpWGvjlDJCUq2M-11" value="&lt;div&gt;struct spi_controller&lt;span style=&quot;white-space: pre;&quot;&gt;&amp;nbsp;&amp;nbsp;&amp;nbsp;&amp;nbsp;&lt;/span&gt;*master;&lt;br&gt;&lt;/div&gt;" style="text;strokeColor=default;fillColor=none;align=left;verticalAlign=top;spacingLeft=4;spacingRight=4;overflow=hidden;rotatable=0;points=[[0,0.5],[1,0.5]];portConstraint=eastwest;whiteSpace=wrap;html=1;dashed=1;dashPattern=1 4;" vertex="1" parent="MZlD9gdpWGvjlDJCUq2M-8">
          <mxGeometry y="78" width="220" height="26" as="geometry" />
        </mxCell>
        <mxCell id="MZlD9gdpWGvjlDJCUq2M-12" value="&lt;div&gt;&lt;div&gt;u32&lt;span style=&quot;white-space: pre;&quot;&gt;&amp;nbsp;&amp;nbsp;&amp;nbsp;&amp;nbsp;&lt;/span&gt;&lt;span style=&quot;white-space: pre;&quot;&gt;&amp;nbsp;&amp;nbsp;&amp;nbsp;&amp;nbsp;&lt;/span&gt;&lt;span style=&quot;white-space: pre;&quot;&gt;&amp;nbsp;&amp;nbsp;&amp;nbsp;&amp;nbsp;&lt;/span&gt;max_speed_hz;&lt;/div&gt;&lt;/div&gt;" style="text;strokeColor=default;fillColor=none;align=left;verticalAlign=top;spacingLeft=4;spacingRight=4;overflow=hidden;rotatable=0;points=[[0,0.5],[1,0.5]];portConstraint=eastwest;whiteSpace=wrap;html=1;dashed=1;dashPattern=1 4;" vertex="1" parent="MZlD9gdpWGvjlDJCUq2M-8">
          <mxGeometry y="104" width="220" height="26" as="geometry" />
        </mxCell>
        <mxCell id="MZlD9gdpWGvjlDJCUq2M-13" value="&lt;div&gt;&lt;div&gt;u8&lt;span style=&quot;white-space: pre;&quot;&gt;&amp;nbsp;&amp;nbsp;&amp;nbsp;&amp;nbsp;&lt;/span&gt;&lt;span style=&quot;white-space: pre;&quot;&gt;&amp;nbsp;&amp;nbsp;&amp;nbsp;&amp;nbsp;&lt;/span&gt;&lt;span style=&quot;white-space: pre;&quot;&gt;&amp;nbsp;&amp;nbsp;&amp;nbsp;&amp;nbsp;&lt;/span&gt;chip_select;&lt;/div&gt;&lt;/div&gt;&lt;div&gt;&lt;br&gt;&lt;/div&gt;" style="text;strokeColor=default;fillColor=none;align=left;verticalAlign=top;spacingLeft=4;spacingRight=4;overflow=hidden;rotatable=0;points=[[0,0.5],[1,0.5]];portConstraint=eastwest;whiteSpace=wrap;html=1;dashed=1;dashPattern=1 4;" vertex="1" parent="MZlD9gdpWGvjlDJCUq2M-8">
          <mxGeometry y="130" width="220" height="26" as="geometry" />
        </mxCell>
        <mxCell id="MZlD9gdpWGvjlDJCUq2M-14" value="&lt;div&gt;&lt;div&gt;u8&lt;span style=&quot;white-space: pre;&quot;&gt;&amp;nbsp;&amp;nbsp;&amp;nbsp;&amp;nbsp;&lt;/span&gt;&lt;span style=&quot;white-space: pre;&quot;&gt;&amp;nbsp;&amp;nbsp;&amp;nbsp;&amp;nbsp;&lt;/span&gt;&lt;span style=&quot;white-space: pre;&quot;&gt;&amp;nbsp;&amp;nbsp;&amp;nbsp;&amp;nbsp;&lt;/span&gt;bits_per_word;&lt;/div&gt;&lt;/div&gt;&lt;div&gt;&lt;br&gt;&lt;/div&gt;" style="text;strokeColor=default;fillColor=none;align=left;verticalAlign=top;spacingLeft=4;spacingRight=4;overflow=hidden;rotatable=0;points=[[0,0.5],[1,0.5]];portConstraint=eastwest;whiteSpace=wrap;html=1;dashed=1;dashPattern=1 4;" vertex="1" parent="MZlD9gdpWGvjlDJCUq2M-8">
          <mxGeometry y="156" width="220" height="26" as="geometry" />
        </mxCell>
        <mxCell id="MZlD9gdpWGvjlDJCUq2M-15" value="&lt;div&gt;&lt;div&gt;u16&lt;span style=&quot;white-space: pre;&quot;&gt;&amp;nbsp;&amp;nbsp;&amp;nbsp;&amp;nbsp;&lt;/span&gt;&lt;span style=&quot;white-space: pre;&quot;&gt;&amp;nbsp;&amp;nbsp;&amp;nbsp;&amp;nbsp;&lt;/span&gt;&lt;span style=&quot;white-space: pre;&quot;&gt;&amp;nbsp;&amp;nbsp;&amp;nbsp;&amp;nbsp;&lt;/span&gt;mode;&lt;/div&gt;&lt;/div&gt;&lt;div&gt;&lt;br&gt;&lt;/div&gt;" style="text;strokeColor=default;fillColor=none;align=left;verticalAlign=top;spacingLeft=4;spacingRight=4;overflow=hidden;rotatable=0;points=[[0,0.5],[1,0.5]];portConstraint=eastwest;whiteSpace=wrap;html=1;dashed=1;dashPattern=1 4;" vertex="1" parent="MZlD9gdpWGvjlDJCUq2M-8">
          <mxGeometry y="182" width="220" height="26" as="geometry" />
        </mxCell>
        <mxCell id="MZlD9gdpWGvjlDJCUq2M-22" value="int&#x9;&#x9;&#x9;cs_gpio;" style="text;strokeColor=default;fillColor=none;align=left;verticalAlign=top;spacingLeft=4;spacingRight=4;overflow=hidden;rotatable=0;points=[[0,0.5],[1,0.5]];portConstraint=eastwest;whiteSpace=wrap;html=1;dashed=1;dashPattern=1 4;" vertex="1" parent="MZlD9gdpWGvjlDJCUq2M-8">
          <mxGeometry y="208" width="220" height="26" as="geometry" />
        </mxCell>
        <mxCell id="MZlD9gdpWGvjlDJCUq2M-28" value="&lt;div&gt;struct spi_statistics&lt;span style=&quot;white-space: pre;&quot;&gt;&amp;nbsp;&amp;nbsp;&amp;nbsp;&amp;nbsp;&lt;/span&gt;statistics;&lt;/div&gt;&lt;div&gt;&lt;br&gt;&lt;/div&gt;" style="text;strokeColor=default;fillColor=none;align=left;verticalAlign=top;spacingLeft=4;spacingRight=4;overflow=hidden;rotatable=0;points=[[0,0.5],[1,0.5]];portConstraint=eastwest;whiteSpace=wrap;html=1;dashed=1;dashPattern=1 4;" vertex="1" parent="MZlD9gdpWGvjlDJCUq2M-8">
          <mxGeometry y="234" width="220" height="26" as="geometry" />
        </mxCell>
        <mxCell id="MZlD9gdpWGvjlDJCUq2M-23" value="" style="line;strokeWidth=1;fillColor=none;align=left;verticalAlign=middle;spacingTop=-1;spacingLeft=3;spacingRight=3;rotatable=0;labelPosition=right;points=[];portConstraint=eastwest;strokeColor=inherit;" vertex="1" parent="MZlD9gdpWGvjlDJCUq2M-8">
          <mxGeometry y="260" width="220" height="8" as="geometry" />
        </mxCell>
        <mxCell id="MZlD9gdpWGvjlDJCUq2M-24" value="+ method(type): type" style="text;strokeColor=default;fillColor=none;align=left;verticalAlign=top;spacingLeft=4;spacingRight=4;overflow=hidden;rotatable=0;points=[[0,0.5],[1,0.5]];portConstraint=eastwest;whiteSpace=wrap;html=1;dashed=1;dashPattern=1 4;" vertex="1" parent="MZlD9gdpWGvjlDJCUq2M-8">
          <mxGeometry y="268" width="220" height="26" as="geometry" />
        </mxCell>
        <mxCell id="MZlD9gdpWGvjlDJCUq2M-29" style="edgeStyle=orthogonalEdgeStyle;rounded=0;orthogonalLoop=1;jettySize=auto;html=1;exitX=1;exitY=0.5;exitDx=0;exitDy=0;entryX=0.5;entryY=0;entryDx=0;entryDy=0;" edge="1" parent="1" source="gZiH5MzmUHTuEzDFCi7V-6" target="MZlD9gdpWGvjlDJCUq2M-8">
          <mxGeometry relative="1" as="geometry" />
        </mxCell>
        <mxCell id="MZlD9gdpWGvjlDJCUq2M-30" value="&lt;b style=&quot;border-color: var(--border-color);&quot;&gt;struct file_operations&lt;/b&gt;" style="swimlane;fontStyle=1;align=center;verticalAlign=top;childLayout=stackLayout;horizontal=1;startSize=26;horizontalStack=0;resizeParent=1;resizeParentMax=0;resizeLast=0;collapsible=1;marginBottom=0;whiteSpace=wrap;html=1;fillColor=#fff2cc;strokeColor=#d6b656;" vertex="1" parent="1">
          <mxGeometry x="1220" y="280" width="380" height="164" as="geometry" />
        </mxCell>
        <mxCell id="MZlD9gdpWGvjlDJCUq2M-31" value="&lt;div&gt;&lt;div&gt;&lt;div&gt;&lt;div&gt;ssize_t (*read) (struct file *, char __user *, size_t, loff_t *);&lt;/div&gt;&lt;/div&gt;&lt;/div&gt;&lt;/div&gt;&lt;div&gt;&lt;br&gt;&lt;/div&gt;" style="text;strokeColor=default;fillColor=none;align=left;verticalAlign=top;spacingLeft=4;spacingRight=4;overflow=hidden;rotatable=0;points=[[0,0.5],[1,0.5]];portConstraint=eastwest;whiteSpace=wrap;html=1;dashed=1;dashPattern=1 4;" vertex="1" parent="MZlD9gdpWGvjlDJCUq2M-30">
          <mxGeometry y="26" width="380" height="26" as="geometry" />
        </mxCell>
        <mxCell id="MZlD9gdpWGvjlDJCUq2M-32" value="&lt;div&gt;ssize_t (*write) (struct file *, const char __user *, size_t, loff_t *);&lt;/div&gt;&lt;div&gt;&lt;br&gt;&lt;/div&gt;" style="text;strokeColor=default;fillColor=none;align=left;verticalAlign=top;spacingLeft=4;spacingRight=4;overflow=hidden;rotatable=0;points=[[0,0.5],[1,0.5]];portConstraint=eastwest;whiteSpace=wrap;html=1;dashed=1;dashPattern=1 4;" vertex="1" parent="MZlD9gdpWGvjlDJCUq2M-30">
          <mxGeometry y="52" width="380" height="26" as="geometry" />
        </mxCell>
        <mxCell id="MZlD9gdpWGvjlDJCUq2M-33" value="&lt;div&gt;&lt;div&gt;int (*open) (struct inode *, struct file *);&lt;/div&gt;&lt;/div&gt;&lt;div&gt;&lt;br&gt;&lt;/div&gt;" style="text;strokeColor=default;fillColor=none;align=left;verticalAlign=top;spacingLeft=4;spacingRight=4;overflow=hidden;rotatable=0;points=[[0,0.5],[1,0.5]];portConstraint=eastwest;whiteSpace=wrap;html=1;dashed=1;dashPattern=1 4;" vertex="1" parent="MZlD9gdpWGvjlDJCUq2M-30">
          <mxGeometry y="78" width="380" height="26" as="geometry" />
        </mxCell>
        <mxCell id="MZlD9gdpWGvjlDJCUq2M-34" value="&lt;div&gt;int (*release) (struct inode *, struct file *);&lt;/div&gt;&lt;div&gt;&lt;br&gt;&lt;/div&gt;" style="text;strokeColor=default;fillColor=none;align=left;verticalAlign=top;spacingLeft=4;spacingRight=4;overflow=hidden;rotatable=0;points=[[0,0.5],[1,0.5]];portConstraint=eastwest;whiteSpace=wrap;html=1;dashed=1;dashPattern=1 4;" vertex="1" parent="MZlD9gdpWGvjlDJCUq2M-30">
          <mxGeometry y="104" width="380" height="26" as="geometry" />
        </mxCell>
        <mxCell id="MZlD9gdpWGvjlDJCUq2M-40" value="" style="line;strokeWidth=1;fillColor=none;align=left;verticalAlign=middle;spacingTop=-1;spacingLeft=3;spacingRight=3;rotatable=0;labelPosition=right;points=[];portConstraint=eastwest;strokeColor=inherit;" vertex="1" parent="MZlD9gdpWGvjlDJCUq2M-30">
          <mxGeometry y="130" width="380" height="8" as="geometry" />
        </mxCell>
        <mxCell id="MZlD9gdpWGvjlDJCUq2M-41" value="+ method(type): type" style="text;strokeColor=default;fillColor=none;align=left;verticalAlign=top;spacingLeft=4;spacingRight=4;overflow=hidden;rotatable=0;points=[[0,0.5],[1,0.5]];portConstraint=eastwest;whiteSpace=wrap;html=1;dashed=1;dashPattern=1 4;" vertex="1" parent="MZlD9gdpWGvjlDJCUq2M-30">
          <mxGeometry y="138" width="380" height="26" as="geometry" />
        </mxCell>
      </root>
    </mxGraphModel>
  </diagram>
</mxfile>
